%TF.GenerationSoftware,KiCad,Pcbnew,10.0.4-10.0.4~ubuntu24.04.1*%
%TF.CreationDate,2026-10-09T06:35:47+10:30*%
%TF.ProjectId,motherboards,6d6f7468-6572-4626-9f61-7264732e6b69,rev?*%
%TF.SameCoordinates,Original*%
%TF.FileFunction,Soldermask,Bot*%
%TF.FilePolarity,Negative*%
%FSLAX46Y46*%
G04 Gerber Fmt 4.6, Leading zero omitted, Abs format (unit mm)*
G04 Created by KiCad (PCBNEW 10.0.4-10.0.4~ubuntu24.04.1) date 2026-10-09 06:35:47*
%MOMM*%
%LPD*%
G01*
G04 APERTURE LIST*
%ADD10R,1.700000X1.700000*%
%ADD11O,1.700000X1.700000*%
G04 APERTURE END LIST*
D10*
%TO.C,J101*%
X117145000Y-23725000D03*
D11*
X117145000Y-26265000D03*
X117145000Y-28805000D03*
X117145000Y-31345000D03*
X117145000Y-33885000D03*
X117145000Y-36425000D03*
X117145000Y-38965000D03*
X117145000Y-41505000D03*
X117145000Y-44045000D03*
X117145000Y-46585000D03*
X117145000Y-49125000D03*
X117145000Y-51665000D03*
X117145000Y-54205000D03*
X117145000Y-56745000D03*
X117145000Y-59285000D03*
X117145000Y-61825000D03*
X117145000Y-64365000D03*
X117145000Y-66905000D03*
X117145000Y-69445000D03*
X117145000Y-71985000D03*
X117145000Y-74525000D03*
X117145000Y-77065000D03*
X117145000Y-79605000D03*
X117145000Y-82145000D03*
X117145000Y-84685000D03*
X117145000Y-87225000D03*
X117145000Y-89765000D03*
X117145000Y-92305000D03*
X117145000Y-94845000D03*
X117145000Y-97385000D03*
X117145000Y-99925000D03*
X117145000Y-102465000D03*
X117145000Y-105005000D03*
X117145000Y-107545000D03*
X117145000Y-110085000D03*
%TD*%
D10*
%TO.C,J103*%
X129845000Y-23725000D03*
D11*
X129845000Y-26265000D03*
X129845000Y-28805000D03*
X129845000Y-31345000D03*
X129845000Y-33885000D03*
X129845000Y-36425000D03*
X129845000Y-38965000D03*
X129845000Y-41505000D03*
X129845000Y-44045000D03*
X129845000Y-46585000D03*
X129845000Y-49125000D03*
X129845000Y-51665000D03*
X129845000Y-54205000D03*
X129845000Y-56745000D03*
X129845000Y-59285000D03*
X129845000Y-61825000D03*
X129845000Y-64365000D03*
X129845000Y-66905000D03*
X129845000Y-69445000D03*
X129845000Y-71985000D03*
X129845000Y-74525000D03*
X129845000Y-77065000D03*
X129845000Y-79605000D03*
X129845000Y-82145000D03*
X129845000Y-84685000D03*
X129845000Y-87225000D03*
X129845000Y-89765000D03*
X129845000Y-92305000D03*
X129845000Y-94845000D03*
X129845000Y-97385000D03*
X129845000Y-99925000D03*
X129845000Y-102465000D03*
X129845000Y-105005000D03*
X129845000Y-107545000D03*
X129845000Y-110085000D03*
%TD*%
M02*
