%TF.GenerationSoftware,KiCad,Pcbnew,10.0.4-10.0.4~ubuntu24.04.1*%
%TF.CreationDate,2026-10-09T06:35:46+10:30*%
%TF.ProjectId,motherboards,6d6f7468-6572-4626-9f61-7264732e6b69,rev?*%
%TF.SameCoordinates,Original*%
%TF.FileFunction,Legend,Top*%
%TF.FilePolarity,Positive*%
%FSLAX46Y46*%
G04 Gerber Fmt 4.6, Leading zero omitted, Abs format (unit mm)*
G04 Created by KiCad (PCBNEW 10.0.4-10.0.4~ubuntu24.04.1) date 2026-10-09 06:35:46*
%MOMM*%
%LPD*%
G01*
G04 APERTURE LIST*
%ADD10C,0.150000*%
%ADD11C,0.726920*%
%ADD12C,0.254000*%
%ADD13C,0.000000*%
G04 APERTURE END LIST*
D10*
X121158000Y-60325000D02*
X121412000Y-60579000D01*
X121158000Y-60833000D02*
X121158000Y-60325000D01*
X121412000Y-60579000D02*
X121158000Y-60833000D01*
D11*
X127713460Y-23730000D02*
G75*
G02*
X126986540Y-23730000I-363460J0D01*
G01*
X126986540Y-23730000D02*
G75*
G02*
X127713460Y-23730000I363460J0D01*
G01*
D10*
X120837617Y-54347292D02*
X120951903Y-54385387D01*
X120951903Y-54385387D02*
X120989998Y-54423483D01*
X120989998Y-54423483D02*
X121028094Y-54499673D01*
X121028094Y-54499673D02*
X121028094Y-54613959D01*
X121028094Y-54613959D02*
X120989998Y-54690149D01*
X120989998Y-54690149D02*
X120951903Y-54728245D01*
X120951903Y-54728245D02*
X120875713Y-54766340D01*
X120875713Y-54766340D02*
X120570951Y-54766340D01*
X120570951Y-54766340D02*
X120570951Y-53966340D01*
X120570951Y-53966340D02*
X120837617Y-53966340D01*
X120837617Y-53966340D02*
X120913808Y-54004435D01*
X120913808Y-54004435D02*
X120951903Y-54042530D01*
X120951903Y-54042530D02*
X120989998Y-54118721D01*
X120989998Y-54118721D02*
X120989998Y-54194911D01*
X120989998Y-54194911D02*
X120951903Y-54271102D01*
X120951903Y-54271102D02*
X120913808Y-54309197D01*
X120913808Y-54309197D02*
X120837617Y-54347292D01*
X120837617Y-54347292D02*
X120570951Y-54347292D01*
X121370951Y-54766340D02*
X121370951Y-54233006D01*
X121370951Y-54385387D02*
X121409046Y-54309197D01*
X121409046Y-54309197D02*
X121447141Y-54271102D01*
X121447141Y-54271102D02*
X121523332Y-54233006D01*
X121523332Y-54233006D02*
X121599522Y-54233006D01*
X122170951Y-54728245D02*
X122094760Y-54766340D01*
X122094760Y-54766340D02*
X121942379Y-54766340D01*
X121942379Y-54766340D02*
X121866189Y-54728245D01*
X121866189Y-54728245D02*
X121828093Y-54652054D01*
X121828093Y-54652054D02*
X121828093Y-54347292D01*
X121828093Y-54347292D02*
X121866189Y-54271102D01*
X121866189Y-54271102D02*
X121942379Y-54233006D01*
X121942379Y-54233006D02*
X122094760Y-54233006D01*
X122094760Y-54233006D02*
X122170951Y-54271102D01*
X122170951Y-54271102D02*
X122209046Y-54347292D01*
X122209046Y-54347292D02*
X122209046Y-54423483D01*
X122209046Y-54423483D02*
X121828093Y-54499673D01*
X122894760Y-54766340D02*
X122894760Y-54347292D01*
X122894760Y-54347292D02*
X122856665Y-54271102D01*
X122856665Y-54271102D02*
X122780474Y-54233006D01*
X122780474Y-54233006D02*
X122628093Y-54233006D01*
X122628093Y-54233006D02*
X122551903Y-54271102D01*
X122894760Y-54728245D02*
X122818569Y-54766340D01*
X122818569Y-54766340D02*
X122628093Y-54766340D01*
X122628093Y-54766340D02*
X122551903Y-54728245D01*
X122551903Y-54728245D02*
X122513807Y-54652054D01*
X122513807Y-54652054D02*
X122513807Y-54575864D01*
X122513807Y-54575864D02*
X122551903Y-54499673D01*
X122551903Y-54499673D02*
X122628093Y-54461578D01*
X122628093Y-54461578D02*
X122818569Y-54461578D01*
X122818569Y-54461578D02*
X122894760Y-54423483D01*
X123618570Y-54766340D02*
X123618570Y-53966340D01*
X123618570Y-54728245D02*
X123542379Y-54766340D01*
X123542379Y-54766340D02*
X123389998Y-54766340D01*
X123389998Y-54766340D02*
X123313808Y-54728245D01*
X123313808Y-54728245D02*
X123275713Y-54690149D01*
X123275713Y-54690149D02*
X123237617Y-54613959D01*
X123237617Y-54613959D02*
X123237617Y-54385387D01*
X123237617Y-54385387D02*
X123275713Y-54309197D01*
X123275713Y-54309197D02*
X123313808Y-54271102D01*
X123313808Y-54271102D02*
X123389998Y-54233006D01*
X123389998Y-54233006D02*
X123542379Y-54233006D01*
X123542379Y-54233006D02*
X123618570Y-54271102D01*
X123999523Y-54766340D02*
X123999523Y-53966340D01*
X123999523Y-54271102D02*
X124075713Y-54233006D01*
X124075713Y-54233006D02*
X124228094Y-54233006D01*
X124228094Y-54233006D02*
X124304285Y-54271102D01*
X124304285Y-54271102D02*
X124342380Y-54309197D01*
X124342380Y-54309197D02*
X124380475Y-54385387D01*
X124380475Y-54385387D02*
X124380475Y-54613959D01*
X124380475Y-54613959D02*
X124342380Y-54690149D01*
X124342380Y-54690149D02*
X124304285Y-54728245D01*
X124304285Y-54728245D02*
X124228094Y-54766340D01*
X124228094Y-54766340D02*
X124075713Y-54766340D01*
X124075713Y-54766340D02*
X123999523Y-54728245D01*
X124837618Y-54766340D02*
X124761428Y-54728245D01*
X124761428Y-54728245D02*
X124723333Y-54690149D01*
X124723333Y-54690149D02*
X124685237Y-54613959D01*
X124685237Y-54613959D02*
X124685237Y-54385387D01*
X124685237Y-54385387D02*
X124723333Y-54309197D01*
X124723333Y-54309197D02*
X124761428Y-54271102D01*
X124761428Y-54271102D02*
X124837618Y-54233006D01*
X124837618Y-54233006D02*
X124951904Y-54233006D01*
X124951904Y-54233006D02*
X125028095Y-54271102D01*
X125028095Y-54271102D02*
X125066190Y-54309197D01*
X125066190Y-54309197D02*
X125104285Y-54385387D01*
X125104285Y-54385387D02*
X125104285Y-54613959D01*
X125104285Y-54613959D02*
X125066190Y-54690149D01*
X125066190Y-54690149D02*
X125028095Y-54728245D01*
X125028095Y-54728245D02*
X124951904Y-54766340D01*
X124951904Y-54766340D02*
X124837618Y-54766340D01*
X125790000Y-54766340D02*
X125790000Y-54347292D01*
X125790000Y-54347292D02*
X125751905Y-54271102D01*
X125751905Y-54271102D02*
X125675714Y-54233006D01*
X125675714Y-54233006D02*
X125523333Y-54233006D01*
X125523333Y-54233006D02*
X125447143Y-54271102D01*
X125790000Y-54728245D02*
X125713809Y-54766340D01*
X125713809Y-54766340D02*
X125523333Y-54766340D01*
X125523333Y-54766340D02*
X125447143Y-54728245D01*
X125447143Y-54728245D02*
X125409047Y-54652054D01*
X125409047Y-54652054D02*
X125409047Y-54575864D01*
X125409047Y-54575864D02*
X125447143Y-54499673D01*
X125447143Y-54499673D02*
X125523333Y-54461578D01*
X125523333Y-54461578D02*
X125713809Y-54461578D01*
X125713809Y-54461578D02*
X125790000Y-54423483D01*
X126170953Y-54766340D02*
X126170953Y-54233006D01*
X126170953Y-54385387D02*
X126209048Y-54309197D01*
X126209048Y-54309197D02*
X126247143Y-54271102D01*
X126247143Y-54271102D02*
X126323334Y-54233006D01*
X126323334Y-54233006D02*
X126399524Y-54233006D01*
X127009048Y-54766340D02*
X127009048Y-53966340D01*
X127009048Y-54728245D02*
X126932857Y-54766340D01*
X126932857Y-54766340D02*
X126780476Y-54766340D01*
X126780476Y-54766340D02*
X126704286Y-54728245D01*
X126704286Y-54728245D02*
X126666191Y-54690149D01*
X126666191Y-54690149D02*
X126628095Y-54613959D01*
X126628095Y-54613959D02*
X126628095Y-54385387D01*
X126628095Y-54385387D02*
X126666191Y-54309197D01*
X126666191Y-54309197D02*
X126704286Y-54271102D01*
X126704286Y-54271102D02*
X126780476Y-54233006D01*
X126780476Y-54233006D02*
X126932857Y-54233006D01*
X126932857Y-54233006D02*
X127009048Y-54271102D01*
X121485237Y-55635247D02*
X121751903Y-55635247D01*
X121866189Y-56054295D02*
X121485237Y-56054295D01*
X121485237Y-56054295D02*
X121485237Y-55254295D01*
X121485237Y-55254295D02*
X121866189Y-55254295D01*
X122132856Y-56054295D02*
X122551904Y-55520961D01*
X122132856Y-55520961D02*
X122551904Y-56054295D01*
X123199523Y-56054295D02*
X123199523Y-55635247D01*
X123199523Y-55635247D02*
X123161428Y-55559057D01*
X123161428Y-55559057D02*
X123085237Y-55520961D01*
X123085237Y-55520961D02*
X122932856Y-55520961D01*
X122932856Y-55520961D02*
X122856666Y-55559057D01*
X123199523Y-56016200D02*
X123123332Y-56054295D01*
X123123332Y-56054295D02*
X122932856Y-56054295D01*
X122932856Y-56054295D02*
X122856666Y-56016200D01*
X122856666Y-56016200D02*
X122818570Y-55940009D01*
X122818570Y-55940009D02*
X122818570Y-55863819D01*
X122818570Y-55863819D02*
X122856666Y-55787628D01*
X122856666Y-55787628D02*
X122932856Y-55749533D01*
X122932856Y-55749533D02*
X123123332Y-55749533D01*
X123123332Y-55749533D02*
X123199523Y-55711438D01*
X123580476Y-56054295D02*
X123580476Y-55520961D01*
X123580476Y-55597152D02*
X123618571Y-55559057D01*
X123618571Y-55559057D02*
X123694761Y-55520961D01*
X123694761Y-55520961D02*
X123809047Y-55520961D01*
X123809047Y-55520961D02*
X123885238Y-55559057D01*
X123885238Y-55559057D02*
X123923333Y-55635247D01*
X123923333Y-55635247D02*
X123923333Y-56054295D01*
X123923333Y-55635247D02*
X123961428Y-55559057D01*
X123961428Y-55559057D02*
X124037619Y-55520961D01*
X124037619Y-55520961D02*
X124151904Y-55520961D01*
X124151904Y-55520961D02*
X124228095Y-55559057D01*
X124228095Y-55559057D02*
X124266190Y-55635247D01*
X124266190Y-55635247D02*
X124266190Y-56054295D01*
X124647143Y-55520961D02*
X124647143Y-56320961D01*
X124647143Y-55559057D02*
X124723333Y-55520961D01*
X124723333Y-55520961D02*
X124875714Y-55520961D01*
X124875714Y-55520961D02*
X124951905Y-55559057D01*
X124951905Y-55559057D02*
X124990000Y-55597152D01*
X124990000Y-55597152D02*
X125028095Y-55673342D01*
X125028095Y-55673342D02*
X125028095Y-55901914D01*
X125028095Y-55901914D02*
X124990000Y-55978104D01*
X124990000Y-55978104D02*
X124951905Y-56016200D01*
X124951905Y-56016200D02*
X124875714Y-56054295D01*
X124875714Y-56054295D02*
X124723333Y-56054295D01*
X124723333Y-56054295D02*
X124647143Y-56016200D01*
X125485238Y-56054295D02*
X125409048Y-56016200D01*
X125409048Y-56016200D02*
X125370953Y-55940009D01*
X125370953Y-55940009D02*
X125370953Y-55254295D01*
X126094763Y-56016200D02*
X126018572Y-56054295D01*
X126018572Y-56054295D02*
X125866191Y-56054295D01*
X125866191Y-56054295D02*
X125790001Y-56016200D01*
X125790001Y-56016200D02*
X125751905Y-55940009D01*
X125751905Y-55940009D02*
X125751905Y-55635247D01*
X125751905Y-55635247D02*
X125790001Y-55559057D01*
X125790001Y-55559057D02*
X125866191Y-55520961D01*
X125866191Y-55520961D02*
X126018572Y-55520961D01*
X126018572Y-55520961D02*
X126094763Y-55559057D01*
X126094763Y-55559057D02*
X126132858Y-55635247D01*
X126132858Y-55635247D02*
X126132858Y-55711438D01*
X126132858Y-55711438D02*
X125751905Y-55787628D01*
%TO.C,J102*%
D12*
X122840000Y-59837000D02*
X122840000Y-59685000D01*
X122840000Y-75205000D02*
X122840000Y-75053000D01*
X122840000Y-75205000D02*
X124690000Y-75205000D01*
X123511000Y-62365000D02*
X124019000Y-62365000D01*
X123511000Y-65032000D02*
X123511000Y-62365000D01*
X123511000Y-69922000D02*
X124019000Y-69922000D01*
X123511000Y-72588000D02*
X123511000Y-69922000D01*
X124019000Y-62365000D02*
X124019000Y-65032000D01*
X124019000Y-65032000D02*
X123511000Y-65032000D01*
X124019000Y-69922000D02*
X124019000Y-72588000D01*
X124019000Y-72588000D02*
X123511000Y-72588000D01*
X124690000Y-59685000D02*
X122840000Y-59685000D01*
X124690000Y-59837000D02*
X124690000Y-59685000D01*
X124690000Y-75205000D02*
X124690000Y-75053000D01*
D13*
%TO.C,G\u002A\u002A\u002A*%
G36*
X124764623Y-78546987D02*
G01*
X124765128Y-78552789D01*
X124765146Y-78553728D01*
X124766590Y-78566168D01*
X124770224Y-78580884D01*
X124775465Y-78595944D01*
X124781734Y-78609416D01*
X124782108Y-78610093D01*
X124795929Y-78629856D01*
X124813515Y-78647085D01*
X124833975Y-78661161D01*
X124856413Y-78671471D01*
X124879685Y-78677360D01*
X124899569Y-78680357D01*
X124882205Y-78683353D01*
X124856512Y-78690077D01*
X124833180Y-78700751D01*
X124812611Y-78714963D01*
X124795208Y-78732302D01*
X124781375Y-78752355D01*
X124771514Y-78774712D01*
X124766029Y-78798960D01*
X124765641Y-78802402D01*
X124764571Y-78810259D01*
X124763309Y-78815313D01*
X124762167Y-78816470D01*
X124760915Y-78812882D01*
X124760293Y-78806545D01*
X124760277Y-78805360D01*
X124758058Y-78787796D01*
X124751835Y-78769260D01*
X124742259Y-78750712D01*
X124729979Y-78733110D01*
X124715647Y-78717415D01*
X124699912Y-78704584D01*
X124686820Y-78697058D01*
X124672930Y-78691333D01*
X124658247Y-78686517D01*
X124644493Y-78683107D01*
X124633393Y-78681598D01*
X124633139Y-78681588D01*
X124631850Y-78681096D01*
X124634896Y-78680011D01*
X124641634Y-78678530D01*
X124645636Y-78677797D01*
X124668992Y-78671469D01*
X124686689Y-78663841D01*
X124706876Y-78651228D01*
X124724665Y-78635102D01*
X124739431Y-78616290D01*
X124750553Y-78595620D01*
X124757408Y-78573918D01*
X124758352Y-78568630D01*
X124760337Y-78556976D01*
X124762117Y-78549323D01*
X124763583Y-78545913D01*
X124764623Y-78546987D01*
G37*
G36*
X122670281Y-77193882D02*
G01*
X122671381Y-77198848D01*
X122672986Y-77208574D01*
X122673076Y-77209161D01*
X122677826Y-77233684D01*
X122684108Y-77256231D01*
X122691532Y-77275464D01*
X122693546Y-77279647D01*
X122710690Y-77308156D01*
X122731426Y-77333246D01*
X122755441Y-77354681D01*
X122782421Y-77372226D01*
X122812052Y-77385643D01*
X122844020Y-77394698D01*
X122847556Y-77395397D01*
X122858370Y-77397303D01*
X122868237Y-77398790D01*
X122875382Y-77399597D01*
X122876531Y-77399661D01*
X122877644Y-77400084D01*
X122874411Y-77401013D01*
X122867483Y-77402297D01*
X122860506Y-77403366D01*
X122827486Y-77410454D01*
X122796672Y-77421833D01*
X122768410Y-77437312D01*
X122743048Y-77456697D01*
X122720933Y-77479798D01*
X122719831Y-77481156D01*
X122704742Y-77501958D01*
X122692779Y-77523313D01*
X122683555Y-77546225D01*
X122676685Y-77571698D01*
X122671782Y-77600736D01*
X122670836Y-77608517D01*
X122670266Y-77609376D01*
X122669403Y-77605944D01*
X122668418Y-77598946D01*
X122668220Y-77597179D01*
X122662336Y-77564713D01*
X122651999Y-77533790D01*
X122637497Y-77504956D01*
X122619116Y-77478759D01*
X122597145Y-77455747D01*
X122591256Y-77450664D01*
X122573002Y-77437610D01*
X122551664Y-77425798D01*
X122528595Y-77415761D01*
X122505148Y-77408036D01*
X122482679Y-77403157D01*
X122467449Y-77401694D01*
X122465329Y-77401254D01*
X122467835Y-77400301D01*
X122474592Y-77398949D01*
X122478787Y-77398261D01*
X122510720Y-77391601D01*
X122539184Y-77381966D01*
X122565047Y-77368950D01*
X122589177Y-77352145D01*
X122603402Y-77339873D01*
X122620781Y-77320977D01*
X122636306Y-77298623D01*
X122649449Y-77273953D01*
X122659681Y-77248110D01*
X122666473Y-77222239D01*
X122669298Y-77197482D01*
X122669303Y-77197300D01*
X122669614Y-77193444D01*
X122670281Y-77193882D01*
G37*
G36*
X124604221Y-77708517D02*
G01*
X124605915Y-77711583D01*
X124608957Y-77718283D01*
X124612878Y-77727552D01*
X124616228Y-77735834D01*
X124639068Y-77800151D01*
X124657173Y-77865841D01*
X124670557Y-77932589D01*
X124679234Y-78000084D01*
X124683217Y-78068011D01*
X124682520Y-78136056D01*
X124677157Y-78203907D01*
X124667142Y-78271249D01*
X124652489Y-78337770D01*
X124633211Y-78403155D01*
X124609321Y-78467091D01*
X124581423Y-78528095D01*
X124547460Y-78590347D01*
X124509577Y-78649494D01*
X124467887Y-78705417D01*
X124422506Y-78757995D01*
X124373550Y-78807106D01*
X124321132Y-78852631D01*
X124265368Y-78894448D01*
X124206372Y-78932439D01*
X124183093Y-78945867D01*
X124121087Y-78977672D01*
X124057238Y-79004819D01*
X123991718Y-79027272D01*
X123924699Y-79044992D01*
X123856354Y-79057940D01*
X123786856Y-79066078D01*
X123716377Y-79069367D01*
X123645090Y-79067770D01*
X123636540Y-79067252D01*
X123598734Y-79063782D01*
X123558240Y-79058223D01*
X123516801Y-79050883D01*
X123476163Y-79042071D01*
X123438752Y-79032290D01*
X123371874Y-79010468D01*
X123307059Y-78984074D01*
X123244474Y-78953204D01*
X123184285Y-78917956D01*
X123126658Y-78878425D01*
X123071758Y-78834709D01*
X123024693Y-78791743D01*
X123008255Y-78775117D01*
X122990699Y-78756238D01*
X122972637Y-78735855D01*
X122954686Y-78714719D01*
X122937458Y-78693577D01*
X122921569Y-78673179D01*
X122907632Y-78654273D01*
X122896262Y-78637611D01*
X122890165Y-78627691D01*
X122892111Y-78626816D01*
X122899000Y-78626122D01*
X122910740Y-78625615D01*
X122927238Y-78625297D01*
X122948402Y-78625173D01*
X122951495Y-78625172D01*
X123014278Y-78625172D01*
X123036115Y-78651628D01*
X123051085Y-78668931D01*
X123068868Y-78688135D01*
X123088369Y-78708152D01*
X123108494Y-78727893D01*
X123128148Y-78746270D01*
X123146237Y-78762195D01*
X123152778Y-78767626D01*
X123206463Y-78808258D01*
X123261793Y-78844184D01*
X123318937Y-78875477D01*
X123378061Y-78902210D01*
X123439333Y-78924454D01*
X123502921Y-78942281D01*
X123568991Y-78955765D01*
X123598746Y-78960320D01*
X123615115Y-78962119D01*
X123635331Y-78963614D01*
X123658212Y-78964779D01*
X123682573Y-78965587D01*
X123707231Y-78966011D01*
X123731001Y-78966026D01*
X123752700Y-78965603D01*
X123771145Y-78964718D01*
X123776377Y-78964314D01*
X123843589Y-78956025D01*
X123909116Y-78943007D01*
X123972836Y-78925316D01*
X124034627Y-78903010D01*
X124094368Y-78876146D01*
X124151935Y-78844782D01*
X124207208Y-78808976D01*
X124260064Y-78768783D01*
X124310381Y-78724263D01*
X124332199Y-78702796D01*
X124375675Y-78655036D01*
X124415554Y-78603887D01*
X124451642Y-78549678D01*
X124483743Y-78492735D01*
X124511664Y-78433387D01*
X124535209Y-78371963D01*
X124543455Y-78346575D01*
X124559681Y-78285535D01*
X124571292Y-78223028D01*
X124578302Y-78159530D01*
X124580723Y-78095514D01*
X124578568Y-78031454D01*
X124571850Y-77967825D01*
X124560582Y-77905102D01*
X124544776Y-77843757D01*
X124528595Y-77795243D01*
X124525215Y-77785861D01*
X124522736Y-77778520D01*
X124521516Y-77774302D01*
X124521479Y-77773705D01*
X124524278Y-77771611D01*
X124530187Y-77766876D01*
X124538466Y-77760109D01*
X124548377Y-77751921D01*
X124559177Y-77742922D01*
X124570129Y-77733722D01*
X124576068Y-77728696D01*
X124585736Y-77720746D01*
X124594089Y-77714359D01*
X124600377Y-77710073D01*
X124603850Y-77708427D01*
X124604221Y-77708517D01*
G37*
G36*
X123739416Y-77117788D02*
G01*
X123760426Y-77118307D01*
X123778062Y-77119220D01*
X123781416Y-77119478D01*
X123852797Y-77127802D01*
X123922250Y-77140780D01*
X123989786Y-77158417D01*
X124055416Y-77180716D01*
X124119152Y-77207682D01*
X124181005Y-77239319D01*
X124240988Y-77275631D01*
X124250026Y-77281616D01*
X124269895Y-77295069D01*
X124285512Y-77305958D01*
X124296863Y-77314272D01*
X124303932Y-77320001D01*
X124306706Y-77323134D01*
X124306751Y-77323371D01*
X124305080Y-77326046D01*
X124300766Y-77330936D01*
X124296495Y-77335260D01*
X124290878Y-77340981D01*
X124282952Y-77349405D01*
X124273730Y-77359440D01*
X124264222Y-77369997D01*
X124263289Y-77371045D01*
X124254778Y-77380457D01*
X124247376Y-77388333D01*
X124241753Y-77393985D01*
X124238578Y-77396721D01*
X124238217Y-77396871D01*
X124235501Y-77395513D01*
X124229427Y-77391771D01*
X124220771Y-77386144D01*
X124210308Y-77379131D01*
X124204720Y-77375315D01*
X124147904Y-77339255D01*
X124089248Y-77307821D01*
X124028944Y-77281059D01*
X123967186Y-77259016D01*
X123904169Y-77241738D01*
X123840086Y-77229272D01*
X123775132Y-77221665D01*
X123709499Y-77218963D01*
X123643382Y-77221212D01*
X123587484Y-77226980D01*
X123523787Y-77238098D01*
X123460966Y-77254085D01*
X123399370Y-77274800D01*
X123339346Y-77300102D01*
X123281245Y-77329849D01*
X123225412Y-77363899D01*
X123190180Y-77388510D01*
X123143751Y-77425425D01*
X123098876Y-77466510D01*
X123056301Y-77510958D01*
X123016775Y-77557966D01*
X122981045Y-77606728D01*
X122965540Y-77630398D01*
X122955834Y-77646683D01*
X122944943Y-77666435D01*
X122933425Y-77688513D01*
X122921838Y-77711776D01*
X122910739Y-77735086D01*
X122900686Y-77757300D01*
X122892237Y-77777279D01*
X122886917Y-77791138D01*
X122870051Y-77841766D01*
X122856720Y-77890309D01*
X122846699Y-77938042D01*
X122839768Y-77986237D01*
X122835703Y-78036169D01*
X122834281Y-78089111D01*
X122834275Y-78092278D01*
X122836142Y-78155198D01*
X122841913Y-78215455D01*
X122851719Y-78273727D01*
X122865691Y-78330692D01*
X122883960Y-78387026D01*
X122898575Y-78424527D01*
X122902678Y-78434495D01*
X122905937Y-78442582D01*
X122907942Y-78447759D01*
X122908378Y-78449093D01*
X122906079Y-78449835D01*
X122900009Y-78450078D01*
X122891406Y-78449868D01*
X122881507Y-78449253D01*
X122871550Y-78448279D01*
X122865545Y-78447463D01*
X122855544Y-78445593D01*
X122843609Y-78442893D01*
X122830800Y-78439661D01*
X122818176Y-78436193D01*
X122806799Y-78432786D01*
X122797727Y-78429737D01*
X122792021Y-78427342D01*
X122790809Y-78426533D01*
X122788335Y-78422260D01*
X122784932Y-78413805D01*
X122780810Y-78401895D01*
X122776180Y-78387258D01*
X122771250Y-78370619D01*
X122766230Y-78352708D01*
X122761332Y-78334249D01*
X122756763Y-78315971D01*
X122752735Y-78298601D01*
X122749716Y-78284196D01*
X122743538Y-78250254D01*
X122738795Y-78218274D01*
X122735356Y-78186838D01*
X122733093Y-78154527D01*
X122731875Y-78119924D01*
X122731565Y-78086005D01*
X122731603Y-78025561D01*
X122725465Y-78035614D01*
X122714814Y-78054318D01*
X122703451Y-78076474D01*
X122692018Y-78100677D01*
X122681154Y-78125525D01*
X122671499Y-78149613D01*
X122664348Y-78169560D01*
X122655801Y-78199428D01*
X122649699Y-78229915D01*
X122646118Y-78260057D01*
X122645134Y-78288886D01*
X122646823Y-78315437D01*
X122651045Y-78337938D01*
X122660449Y-78365936D01*
X122672994Y-78390401D01*
X122689168Y-78412088D01*
X122709460Y-78431747D01*
X122714632Y-78435959D01*
X122745825Y-78457435D01*
X122779680Y-78474660D01*
X122816133Y-78487623D01*
X122855122Y-78496314D01*
X122896584Y-78500721D01*
X122940457Y-78500834D01*
X122986678Y-78496642D01*
X123025539Y-78490135D01*
X123073518Y-78478993D01*
X123123051Y-78464397D01*
X123174278Y-78446276D01*
X123227340Y-78424559D01*
X123282378Y-78399177D01*
X123339531Y-78370060D01*
X123398940Y-78337137D01*
X123460746Y-78300339D01*
X123525089Y-78259595D01*
X123592110Y-78214836D01*
X123630241Y-78188427D01*
X123671396Y-78159029D01*
X123709629Y-78130496D01*
X123745789Y-78102107D01*
X123780724Y-78073139D01*
X123815284Y-78042871D01*
X123850318Y-78010583D01*
X123886675Y-77975551D01*
X123920675Y-77941642D01*
X123984346Y-77877269D01*
X123991224Y-77883481D01*
X124006483Y-77897338D01*
X124018848Y-77908775D01*
X124029230Y-77918678D01*
X124038537Y-77927932D01*
X124047679Y-77937422D01*
X124057567Y-77948036D01*
X124057934Y-77948434D01*
X124066702Y-77958155D01*
X124074088Y-77966713D01*
X124079477Y-77973369D01*
X124082256Y-77977381D01*
X124082500Y-77978057D01*
X124080654Y-77981103D01*
X124075392Y-77987028D01*
X124067137Y-77995446D01*
X124056312Y-78005974D01*
X124043339Y-78018225D01*
X124028643Y-78031816D01*
X124012646Y-78046361D01*
X123995772Y-78061476D01*
X123978443Y-78076775D01*
X123961083Y-78091873D01*
X123944114Y-78106387D01*
X123927961Y-78119930D01*
X123913695Y-78131596D01*
X123863703Y-78170545D01*
X123810923Y-78209192D01*
X123755862Y-78247255D01*
X123699030Y-78284452D01*
X123640937Y-78320501D01*
X123582092Y-78355118D01*
X123523003Y-78388021D01*
X123464181Y-78418928D01*
X123406135Y-78447556D01*
X123349373Y-78473623D01*
X123294406Y-78496845D01*
X123241742Y-78516941D01*
X123191891Y-78533628D01*
X123185533Y-78535566D01*
X123136848Y-78548963D01*
X123088738Y-78559746D01*
X123041810Y-78567835D01*
X122996674Y-78573154D01*
X122953939Y-78575623D01*
X122914214Y-78575165D01*
X122890741Y-78573310D01*
X122864170Y-78569395D01*
X122836225Y-78563462D01*
X122808381Y-78555926D01*
X122782118Y-78547200D01*
X122758911Y-78537701D01*
X122752010Y-78534383D01*
X122730177Y-78522108D01*
X122708170Y-78507374D01*
X122686847Y-78490923D01*
X122667066Y-78473496D01*
X122649685Y-78455833D01*
X122635560Y-78438676D01*
X122628025Y-78427286D01*
X122614346Y-78400359D01*
X122604523Y-78372722D01*
X122598310Y-78343395D01*
X122595457Y-78311400D01*
X122595201Y-78297625D01*
X122597089Y-78261232D01*
X122602873Y-78224133D01*
X122612643Y-78186082D01*
X122626493Y-78146835D01*
X122644513Y-78106148D01*
X122666796Y-78063775D01*
X122693432Y-78019473D01*
X122707561Y-77997794D01*
X122715421Y-77986105D01*
X122722890Y-77975165D01*
X122729237Y-77966033D01*
X122733731Y-77959770D01*
X122734507Y-77958740D01*
X122737915Y-77953405D01*
X122740615Y-77946723D01*
X122742964Y-77937533D01*
X122745320Y-77924669D01*
X122745719Y-77922206D01*
X122754883Y-77875305D01*
X122767532Y-77826389D01*
X122783247Y-77776632D01*
X122801611Y-77727208D01*
X122822204Y-77679289D01*
X122844610Y-77634048D01*
X122855318Y-77614623D01*
X122867174Y-77594676D01*
X122881202Y-77572416D01*
X122896538Y-77549121D01*
X122912318Y-77526072D01*
X122927679Y-77504546D01*
X122941758Y-77485823D01*
X122945337Y-77481277D01*
X122956794Y-77467562D01*
X122971141Y-77451415D01*
X122987540Y-77433698D01*
X123005150Y-77415272D01*
X123023134Y-77396998D01*
X123040652Y-77379737D01*
X123056864Y-77364351D01*
X123070933Y-77351701D01*
X123074671Y-77348517D01*
X123130409Y-77304738D01*
X123187496Y-77265711D01*
X123246172Y-77231332D01*
X123306675Y-77201494D01*
X123369245Y-77176094D01*
X123434121Y-77155025D01*
X123501544Y-77138181D01*
X123571751Y-77125459D01*
X123586148Y-77123399D01*
X123601349Y-77121755D01*
X123620534Y-77120356D01*
X123642651Y-77119224D01*
X123666649Y-77118380D01*
X123691476Y-77117845D01*
X123716082Y-77117641D01*
X123739416Y-77117788D01*
G37*
G36*
X124026871Y-78100052D02*
G01*
X124029346Y-78100907D01*
X124031879Y-78102199D01*
X124034130Y-78103419D01*
X124037342Y-78105944D01*
X124043677Y-78111660D01*
X124052721Y-78120169D01*
X124064063Y-78131072D01*
X124077288Y-78143970D01*
X124091984Y-78158466D01*
X124107737Y-78174160D01*
X124114632Y-78181076D01*
X124188330Y-78255151D01*
X124188330Y-78266202D01*
X124188330Y-78277253D01*
X124121611Y-78344141D01*
X124054892Y-78411028D01*
X124121611Y-78477883D01*
X124188330Y-78544739D01*
X124188330Y-78555839D01*
X124188330Y-78566939D01*
X124038990Y-78716366D01*
X123889651Y-78865793D01*
X123878412Y-78865793D01*
X123867173Y-78865793D01*
X123789650Y-78788270D01*
X123712127Y-78710747D01*
X123712127Y-78699718D01*
X123712127Y-78699500D01*
X123770078Y-78699500D01*
X123771811Y-78702276D01*
X123776646Y-78707982D01*
X123784036Y-78716072D01*
X123793436Y-78725998D01*
X123804298Y-78737216D01*
X123816078Y-78749177D01*
X123828228Y-78761336D01*
X123840203Y-78773146D01*
X123851456Y-78784061D01*
X123861442Y-78793534D01*
X123869613Y-78801019D01*
X123875423Y-78805970D01*
X123878327Y-78807839D01*
X123878376Y-78807842D01*
X123881059Y-78806121D01*
X123886800Y-78801255D01*
X123895120Y-78793690D01*
X123905543Y-78783870D01*
X123917588Y-78772242D01*
X123930779Y-78759251D01*
X123934459Y-78755583D01*
X123947752Y-78742177D01*
X123959801Y-78729787D01*
X123970159Y-78718890D01*
X123978382Y-78709964D01*
X123984022Y-78703488D01*
X123986634Y-78699938D01*
X123986763Y-78699544D01*
X123985029Y-78696755D01*
X123980193Y-78691037D01*
X123972801Y-78682937D01*
X123963398Y-78673001D01*
X123952532Y-78661776D01*
X123940748Y-78649809D01*
X123928593Y-78637646D01*
X123916614Y-78625834D01*
X123905356Y-78614918D01*
X123895366Y-78605447D01*
X123887190Y-78597966D01*
X123881374Y-78593021D01*
X123878466Y-78591160D01*
X123878420Y-78591157D01*
X123875638Y-78592891D01*
X123869927Y-78597727D01*
X123861834Y-78605120D01*
X123851905Y-78614523D01*
X123840686Y-78625390D01*
X123828724Y-78637174D01*
X123816566Y-78649330D01*
X123804757Y-78661309D01*
X123793844Y-78672567D01*
X123784374Y-78682557D01*
X123776892Y-78690732D01*
X123771946Y-78696546D01*
X123770081Y-78699453D01*
X123770078Y-78699500D01*
X123712127Y-78699500D01*
X123712127Y-78688689D01*
X123778831Y-78621656D01*
X123844181Y-78555984D01*
X123913695Y-78555984D01*
X123915429Y-78558748D01*
X123920269Y-78564440D01*
X123927667Y-78572513D01*
X123937076Y-78582422D01*
X123947951Y-78593622D01*
X123959744Y-78605567D01*
X123971909Y-78617711D01*
X123983899Y-78629510D01*
X123995168Y-78640417D01*
X124005168Y-78649888D01*
X124013355Y-78657375D01*
X124019180Y-78662335D01*
X124022097Y-78664222D01*
X124022152Y-78664225D01*
X124024794Y-78662505D01*
X124030496Y-78657641D01*
X124038783Y-78650077D01*
X124049177Y-78640261D01*
X124061203Y-78628636D01*
X124074383Y-78615648D01*
X124078076Y-78611966D01*
X124091369Y-78598560D01*
X124103418Y-78586170D01*
X124113776Y-78575273D01*
X124121998Y-78566348D01*
X124127639Y-78559871D01*
X124130251Y-78556321D01*
X124130380Y-78555928D01*
X124128646Y-78553138D01*
X124123810Y-78547420D01*
X124116417Y-78539320D01*
X124107015Y-78529384D01*
X124096149Y-78518160D01*
X124084365Y-78506192D01*
X124072210Y-78494029D01*
X124060231Y-78482217D01*
X124048973Y-78471302D01*
X124038982Y-78461830D01*
X124030807Y-78454349D01*
X124024991Y-78449404D01*
X124022083Y-78447543D01*
X124022037Y-78447541D01*
X124019241Y-78449276D01*
X124013520Y-78454116D01*
X124005418Y-78461515D01*
X123995484Y-78470925D01*
X123984262Y-78481801D01*
X123972299Y-78493595D01*
X123960141Y-78505761D01*
X123948336Y-78517751D01*
X123937427Y-78529020D01*
X123927963Y-78539020D01*
X123920489Y-78547204D01*
X123915552Y-78553027D01*
X123913697Y-78555940D01*
X123913695Y-78555984D01*
X123844181Y-78555984D01*
X123845535Y-78554623D01*
X123778831Y-78487837D01*
X123761658Y-78470627D01*
X123747717Y-78456588D01*
X123736670Y-78445331D01*
X123728182Y-78436469D01*
X123721916Y-78429613D01*
X123717535Y-78424377D01*
X123714703Y-78420371D01*
X123713084Y-78417209D01*
X123712339Y-78414502D01*
X123712134Y-78411862D01*
X123712129Y-78411229D01*
X123770078Y-78411229D01*
X123771786Y-78414160D01*
X123776552Y-78419979D01*
X123783843Y-78428145D01*
X123793124Y-78438121D01*
X123803859Y-78449365D01*
X123815513Y-78461339D01*
X123827553Y-78473503D01*
X123839444Y-78485318D01*
X123850650Y-78496244D01*
X123860637Y-78505740D01*
X123868870Y-78513269D01*
X123874814Y-78518290D01*
X123877935Y-78520264D01*
X123878142Y-78520259D01*
X123880541Y-78518312D01*
X123886033Y-78513247D01*
X123894151Y-78505514D01*
X123904428Y-78495561D01*
X123916400Y-78483839D01*
X123929598Y-78470797D01*
X123933784Y-78466637D01*
X123947165Y-78453235D01*
X123959305Y-78440904D01*
X123969760Y-78430109D01*
X123978088Y-78421314D01*
X123983847Y-78414981D01*
X123986593Y-78411574D01*
X123986763Y-78411184D01*
X123985043Y-78408780D01*
X123980177Y-78403294D01*
X123972601Y-78395186D01*
X123962754Y-78384916D01*
X123951074Y-78372945D01*
X123937999Y-78359730D01*
X123932930Y-78354654D01*
X123917426Y-78339215D01*
X123905052Y-78327040D01*
X123895414Y-78317786D01*
X123888121Y-78311111D01*
X123882782Y-78306673D01*
X123879006Y-78304130D01*
X123876399Y-78303139D01*
X123874572Y-78303359D01*
X123874350Y-78303470D01*
X123870420Y-78306454D01*
X123863823Y-78312382D01*
X123855101Y-78320692D01*
X123844797Y-78330825D01*
X123833454Y-78342217D01*
X123821615Y-78354309D01*
X123809823Y-78366538D01*
X123798622Y-78378344D01*
X123788554Y-78389166D01*
X123780162Y-78398442D01*
X123773989Y-78405611D01*
X123770580Y-78410111D01*
X123770078Y-78411229D01*
X123712129Y-78411229D01*
X123712127Y-78410961D01*
X123712184Y-78409120D01*
X123712504Y-78407239D01*
X123713310Y-78405081D01*
X123714828Y-78402407D01*
X123717280Y-78398977D01*
X123720890Y-78394553D01*
X123725884Y-78388896D01*
X123732483Y-78381767D01*
X123740913Y-78372928D01*
X123751398Y-78362139D01*
X123764160Y-78349162D01*
X123779425Y-78333758D01*
X123797417Y-78315688D01*
X123818358Y-78294713D01*
X123842473Y-78270595D01*
X123846940Y-78266130D01*
X123913695Y-78266130D01*
X123915428Y-78268906D01*
X123920262Y-78274613D01*
X123927653Y-78282702D01*
X123937052Y-78292629D01*
X123947915Y-78303846D01*
X123959695Y-78315807D01*
X123971845Y-78327966D01*
X123983820Y-78339776D01*
X123995073Y-78350691D01*
X124005058Y-78360164D01*
X124013229Y-78367649D01*
X124019040Y-78372600D01*
X124021944Y-78374470D01*
X124021993Y-78374472D01*
X124024676Y-78372751D01*
X124030417Y-78367886D01*
X124038737Y-78360320D01*
X124049159Y-78350500D01*
X124061205Y-78338872D01*
X124074396Y-78325881D01*
X124078076Y-78322213D01*
X124091369Y-78308807D01*
X124103418Y-78296417D01*
X124113776Y-78285520D01*
X124121998Y-78276595D01*
X124127639Y-78270118D01*
X124130251Y-78266568D01*
X124130380Y-78266175D01*
X124128646Y-78263385D01*
X124123810Y-78257667D01*
X124116417Y-78249567D01*
X124107015Y-78239631D01*
X124096149Y-78228407D01*
X124084365Y-78216439D01*
X124072210Y-78204276D01*
X124060231Y-78192464D01*
X124048973Y-78181549D01*
X124038982Y-78172077D01*
X124030807Y-78164596D01*
X124024991Y-78159651D01*
X124022083Y-78157790D01*
X124022037Y-78157788D01*
X124019255Y-78159521D01*
X124013544Y-78164358D01*
X124005451Y-78171751D01*
X123995521Y-78181154D01*
X123984303Y-78192021D01*
X123972341Y-78203805D01*
X123960182Y-78215960D01*
X123948374Y-78227940D01*
X123937461Y-78239198D01*
X123927990Y-78249187D01*
X123920509Y-78257362D01*
X123915562Y-78263176D01*
X123913697Y-78266083D01*
X123913695Y-78266130D01*
X123846940Y-78266130D01*
X123862722Y-78250354D01*
X123889809Y-78223276D01*
X123913565Y-78199543D01*
X123934230Y-78178947D01*
X123952047Y-78161280D01*
X123967259Y-78146335D01*
X123980107Y-78133904D01*
X123990834Y-78123779D01*
X123999682Y-78115753D01*
X124006893Y-78109619D01*
X124012710Y-78105169D01*
X124017373Y-78102194D01*
X124021127Y-78100489D01*
X124024212Y-78099844D01*
X124026871Y-78100052D01*
G37*
G36*
X123378579Y-77727010D02*
G01*
X123382039Y-77729392D01*
X123388575Y-77734926D01*
X123397719Y-77743178D01*
X123409004Y-77753714D01*
X123421966Y-77766099D01*
X123436138Y-77779900D01*
X123447686Y-77791323D01*
X123465523Y-77808995D01*
X123480164Y-77823280D01*
X123491890Y-77834435D01*
X123500986Y-77842718D01*
X123507736Y-77848385D01*
X123512422Y-77851694D01*
X123515328Y-77852901D01*
X123515595Y-77852917D01*
X123518336Y-77851951D01*
X123522862Y-77848882D01*
X123529456Y-77843455D01*
X123538404Y-77835414D01*
X123549988Y-77824503D01*
X123564495Y-77810469D01*
X123582184Y-77793077D01*
X123596563Y-77778835D01*
X123609771Y-77765703D01*
X123621388Y-77754104D01*
X123630990Y-77744461D01*
X123638156Y-77737197D01*
X123642466Y-77732736D01*
X123643567Y-77731488D01*
X123646968Y-77728995D01*
X123653232Y-77726929D01*
X123660182Y-77725800D01*
X123665643Y-77726117D01*
X123666010Y-77726243D01*
X123669258Y-77728569D01*
X123675565Y-77734036D01*
X123684465Y-77742184D01*
X123695493Y-77752553D01*
X123708182Y-77764683D01*
X123722065Y-77778114D01*
X123736677Y-77792386D01*
X123751552Y-77807039D01*
X123766223Y-77821614D01*
X123780223Y-77835650D01*
X123793088Y-77848688D01*
X123804351Y-77860268D01*
X123813545Y-77869931D01*
X123820205Y-77877215D01*
X123823864Y-77881661D01*
X123824332Y-77882426D01*
X123826783Y-77891020D01*
X123826522Y-77897095D01*
X123824457Y-77900076D01*
X123819114Y-77906256D01*
X123810818Y-77915311D01*
X123799893Y-77926917D01*
X123786661Y-77940749D01*
X123771447Y-77956482D01*
X123754575Y-77973792D01*
X123736367Y-77992355D01*
X123717148Y-78011845D01*
X123697241Y-78031938D01*
X123676970Y-78052309D01*
X123656659Y-78072635D01*
X123636630Y-78092590D01*
X123617208Y-78111851D01*
X123598717Y-78130091D01*
X123581479Y-78146988D01*
X123565819Y-78162215D01*
X123552060Y-78175449D01*
X123540526Y-78186366D01*
X123531541Y-78194640D01*
X123525427Y-78199947D01*
X123522528Y-78201958D01*
X123514580Y-78202656D01*
X123508670Y-78201952D01*
X123504734Y-78199573D01*
X123497514Y-78193655D01*
X123487164Y-78184338D01*
X123473838Y-78171768D01*
X123457693Y-78156086D01*
X123440137Y-78138689D01*
X123423352Y-78121974D01*
X123409710Y-78108521D01*
X123398828Y-78097992D01*
X123390325Y-78090047D01*
X123383818Y-78084346D01*
X123378925Y-78080550D01*
X123375266Y-78078320D01*
X123372458Y-78077316D01*
X123370912Y-78077161D01*
X123368476Y-78077549D01*
X123365432Y-78078936D01*
X123361405Y-78081658D01*
X123356017Y-78086048D01*
X123348893Y-78092443D01*
X123339655Y-78101177D01*
X123327928Y-78112586D01*
X123313335Y-78127003D01*
X123300125Y-78140150D01*
X123283415Y-78156794D01*
X123269863Y-78170217D01*
X123259066Y-78180763D01*
X123250623Y-78188780D01*
X123244132Y-78194614D01*
X123239191Y-78198610D01*
X123235399Y-78201114D01*
X123232355Y-78202473D01*
X123229656Y-78203033D01*
X123227016Y-78203140D01*
X123225191Y-78203074D01*
X123223305Y-78202726D01*
X123221119Y-78201872D01*
X123218395Y-78200288D01*
X123214893Y-78197751D01*
X123210375Y-78194037D01*
X123204603Y-78188921D01*
X123197337Y-78182181D01*
X123188340Y-78173591D01*
X123177373Y-78162929D01*
X123164196Y-78149969D01*
X123148571Y-78134489D01*
X123130260Y-78116265D01*
X123109024Y-78095072D01*
X123084624Y-78070688D01*
X123066506Y-78052571D01*
X123050513Y-78036576D01*
X123117885Y-78036576D01*
X123117898Y-78036768D01*
X123119930Y-78039406D01*
X123125000Y-78044958D01*
X123132567Y-78052887D01*
X123142093Y-78062659D01*
X123153038Y-78073738D01*
X123164862Y-78085589D01*
X123177025Y-78097674D01*
X123188989Y-78109459D01*
X123200214Y-78120409D01*
X123210159Y-78129987D01*
X123218287Y-78137657D01*
X123224056Y-78142884D01*
X123226928Y-78145133D01*
X123227085Y-78145181D01*
X123229430Y-78143466D01*
X123234862Y-78138609D01*
X123242922Y-78131048D01*
X123253151Y-78121222D01*
X123265089Y-78109568D01*
X123278277Y-78096525D01*
X123283145Y-78091670D01*
X123296584Y-78078165D01*
X123308789Y-78065753D01*
X123319320Y-78054891D01*
X123327739Y-78046037D01*
X123333608Y-78039649D01*
X123335938Y-78036847D01*
X123407257Y-78036847D01*
X123408990Y-78039624D01*
X123413825Y-78045330D01*
X123421215Y-78053419D01*
X123430614Y-78063346D01*
X123441477Y-78074563D01*
X123453257Y-78086524D01*
X123465407Y-78098683D01*
X123477382Y-78110493D01*
X123488635Y-78121408D01*
X123498620Y-78130881D01*
X123506792Y-78138366D01*
X123512602Y-78143317D01*
X123515506Y-78145187D01*
X123515555Y-78145190D01*
X123518238Y-78143469D01*
X123523979Y-78138603D01*
X123532299Y-78131037D01*
X123542721Y-78121218D01*
X123554767Y-78109590D01*
X123567958Y-78096598D01*
X123571638Y-78092931D01*
X123584931Y-78079524D01*
X123596980Y-78067134D01*
X123607338Y-78056237D01*
X123615560Y-78047312D01*
X123621201Y-78040835D01*
X123623813Y-78037285D01*
X123623942Y-78036892D01*
X123622208Y-78034102D01*
X123617372Y-78028384D01*
X123609980Y-78020284D01*
X123600577Y-78010349D01*
X123589711Y-77999124D01*
X123577927Y-77987157D01*
X123565772Y-77974994D01*
X123553793Y-77963181D01*
X123542535Y-77952266D01*
X123532545Y-77942794D01*
X123524369Y-77935313D01*
X123518553Y-77930369D01*
X123515645Y-77928507D01*
X123515599Y-77928505D01*
X123512817Y-77930238D01*
X123507106Y-77935075D01*
X123499013Y-77942468D01*
X123489084Y-77951871D01*
X123477865Y-77962738D01*
X123465903Y-77974522D01*
X123453745Y-77986677D01*
X123441936Y-77998657D01*
X123431023Y-78009915D01*
X123421552Y-78019904D01*
X123414071Y-78028079D01*
X123409124Y-78033894D01*
X123407260Y-78036800D01*
X123407257Y-78036847D01*
X123335938Y-78036847D01*
X123336488Y-78036185D01*
X123336708Y-78035746D01*
X123334995Y-78033416D01*
X123330150Y-78027998D01*
X123322617Y-78019958D01*
X123312837Y-78009759D01*
X123301254Y-77997869D01*
X123288310Y-77984750D01*
X123284506Y-77980923D01*
X123267246Y-77963773D01*
X123252885Y-77949891D01*
X123241534Y-77939378D01*
X123233307Y-77932337D01*
X123228314Y-77928871D01*
X123227163Y-77928505D01*
X123224131Y-77930215D01*
X123218223Y-77934987D01*
X123209979Y-77942287D01*
X123199939Y-77951580D01*
X123188644Y-77962330D01*
X123176633Y-77974002D01*
X123164446Y-77986061D01*
X123152624Y-77997972D01*
X123141707Y-78009200D01*
X123132234Y-78019209D01*
X123124746Y-78027465D01*
X123119783Y-78033433D01*
X123117885Y-78036576D01*
X123050513Y-78036576D01*
X123039872Y-78025933D01*
X123016579Y-78002617D01*
X122996403Y-77982386D01*
X122979122Y-77965000D01*
X122964509Y-77950220D01*
X122952342Y-77937809D01*
X122942398Y-77927526D01*
X122934451Y-77919135D01*
X122928278Y-77912395D01*
X122923656Y-77907069D01*
X122920359Y-77902917D01*
X122918166Y-77899701D01*
X122916851Y-77897183D01*
X122916190Y-77895123D01*
X122915961Y-77893282D01*
X122915937Y-77892044D01*
X122915955Y-77891612D01*
X122973887Y-77891612D01*
X122975605Y-77894063D01*
X122980402Y-77899487D01*
X122987742Y-77907347D01*
X122997089Y-77917103D01*
X123007907Y-77928219D01*
X123019661Y-77940156D01*
X123031815Y-77952376D01*
X123043833Y-77964341D01*
X123055179Y-77975513D01*
X123065318Y-77985354D01*
X123073713Y-77993327D01*
X123079830Y-77998892D01*
X123083131Y-78001513D01*
X123083467Y-78001646D01*
X123085807Y-77999928D01*
X123091194Y-77995035D01*
X123099169Y-77987411D01*
X123109276Y-77977502D01*
X123121055Y-77965754D01*
X123134051Y-77952611D01*
X123138290Y-77948287D01*
X123151511Y-77934643D01*
X123163504Y-77922014D01*
X123173829Y-77910883D01*
X123182048Y-77901730D01*
X123187722Y-77895040D01*
X123190412Y-77891293D01*
X123190550Y-77890879D01*
X123262849Y-77890879D01*
X123263673Y-77893367D01*
X123266014Y-77896986D01*
X123270216Y-77902125D01*
X123276619Y-77909175D01*
X123285565Y-77918525D01*
X123297395Y-77930567D01*
X123312451Y-77945690D01*
X123314472Y-77947712D01*
X123328025Y-77961187D01*
X123340487Y-77973430D01*
X123351402Y-77984002D01*
X123360311Y-77992467D01*
X123366760Y-77998388D01*
X123370290Y-78001328D01*
X123370766Y-78001573D01*
X123373095Y-77999856D01*
X123378512Y-77994998D01*
X123386558Y-77987436D01*
X123396776Y-77977609D01*
X123408705Y-77965955D01*
X123421889Y-77952913D01*
X123426762Y-77948054D01*
X123440205Y-77934537D01*
X123452411Y-77922098D01*
X123462944Y-77911197D01*
X123471363Y-77902296D01*
X123477230Y-77895853D01*
X123480106Y-77892330D01*
X123480298Y-77891927D01*
X123550874Y-77891927D01*
X123552594Y-77894349D01*
X123557398Y-77899740D01*
X123564748Y-77907562D01*
X123574108Y-77917280D01*
X123584941Y-77928355D01*
X123596709Y-77940253D01*
X123608876Y-77952434D01*
X123620906Y-77964364D01*
X123632261Y-77975504D01*
X123642404Y-77985319D01*
X123650798Y-77993271D01*
X123656908Y-77998823D01*
X123660195Y-78001440D01*
X123660531Y-78001573D01*
X123662903Y-77999851D01*
X123668352Y-77994980D01*
X123676420Y-77987397D01*
X123686647Y-77977543D01*
X123698574Y-77965856D01*
X123711743Y-77952778D01*
X123716614Y-77947898D01*
X123730023Y-77934364D01*
X123742200Y-77921934D01*
X123752709Y-77911066D01*
X123761113Y-77902216D01*
X123766974Y-77895842D01*
X123769855Y-77892401D01*
X123770078Y-77891971D01*
X123768360Y-77889592D01*
X123763563Y-77884240D01*
X123756224Y-77876449D01*
X123746878Y-77866758D01*
X123736062Y-77855702D01*
X123724311Y-77843818D01*
X123712162Y-77831642D01*
X123700150Y-77819712D01*
X123688812Y-77808563D01*
X123678684Y-77798732D01*
X123670302Y-77790756D01*
X123664202Y-77785172D01*
X123660920Y-77782515D01*
X123660575Y-77782369D01*
X123658157Y-77784088D01*
X123652769Y-77788887D01*
X123644946Y-77796231D01*
X123635226Y-77805583D01*
X123624147Y-77816406D01*
X123612244Y-77828164D01*
X123600056Y-77840321D01*
X123588120Y-77852340D01*
X123576972Y-77863684D01*
X123567150Y-77873818D01*
X123559190Y-77882204D01*
X123553631Y-77888307D01*
X123551008Y-77891590D01*
X123550874Y-77891927D01*
X123480298Y-77891927D01*
X123480325Y-77891871D01*
X123478612Y-77889538D01*
X123473831Y-77884222D01*
X123466517Y-77876461D01*
X123457207Y-77866794D01*
X123446435Y-77855758D01*
X123434737Y-77843892D01*
X123422650Y-77831736D01*
X123410709Y-77819826D01*
X123399450Y-77808702D01*
X123389408Y-77798902D01*
X123381120Y-77790964D01*
X123375120Y-77785428D01*
X123371945Y-77782830D01*
X123371722Y-77782719D01*
X123369391Y-77784205D01*
X123364072Y-77788757D01*
X123356304Y-77795842D01*
X123346631Y-77804930D01*
X123335594Y-77815490D01*
X123323733Y-77826992D01*
X123311590Y-77838903D01*
X123299707Y-77850693D01*
X123288626Y-77861832D01*
X123278887Y-77871787D01*
X123271033Y-77880029D01*
X123265604Y-77886027D01*
X123263202Y-77889131D01*
X123262849Y-77890879D01*
X123190550Y-77890879D01*
X123190572Y-77890814D01*
X123188861Y-77888064D01*
X123184085Y-77882416D01*
X123176781Y-77874409D01*
X123167485Y-77864579D01*
X123156736Y-77853463D01*
X123145068Y-77841599D01*
X123133020Y-77829524D01*
X123121127Y-77817775D01*
X123109927Y-77806889D01*
X123099956Y-77797405D01*
X123091751Y-77789858D01*
X123085849Y-77784786D01*
X123082786Y-77782726D01*
X123082574Y-77782718D01*
X123079901Y-77784773D01*
X123074311Y-77789851D01*
X123066343Y-77797417D01*
X123056532Y-77806931D01*
X123045415Y-77817855D01*
X123033531Y-77829652D01*
X123021415Y-77841783D01*
X123009604Y-77853711D01*
X122998636Y-77864897D01*
X122989048Y-77874804D01*
X122981376Y-77882893D01*
X122976158Y-77888626D01*
X122973930Y-77891466D01*
X122973887Y-77891612D01*
X122915955Y-77891612D01*
X122916041Y-77889510D01*
X122916564Y-77886985D01*
X122917823Y-77884110D01*
X122920134Y-77880525D01*
X122923815Y-77875869D01*
X122929180Y-77869782D01*
X122936548Y-77861905D01*
X122946233Y-77851876D01*
X122958554Y-77839337D01*
X122973826Y-77823926D01*
X122990894Y-77806764D01*
X123008252Y-77789435D01*
X123024373Y-77773561D01*
X123038894Y-77759488D01*
X123051448Y-77747561D01*
X123061671Y-77738127D01*
X123069197Y-77731531D01*
X123073660Y-77728121D01*
X123074226Y-77727818D01*
X123081409Y-77725786D01*
X123087656Y-77725702D01*
X123088084Y-77725812D01*
X123091119Y-77727921D01*
X123097254Y-77733182D01*
X123106036Y-77741170D01*
X123117013Y-77751463D01*
X123129732Y-77763637D01*
X123143741Y-77777269D01*
X123155298Y-77788667D01*
X123170004Y-77803147D01*
X123183778Y-77816500D01*
X123196168Y-77828304D01*
X123206719Y-77838135D01*
X123214979Y-77845569D01*
X123220495Y-77850183D01*
X123222602Y-77851552D01*
X123229186Y-77851723D01*
X123233940Y-77850271D01*
X123237062Y-77847840D01*
X123243281Y-77842281D01*
X123252136Y-77834034D01*
X123263163Y-77823537D01*
X123275900Y-77811229D01*
X123289884Y-77797549D01*
X123300174Y-77787386D01*
X123314721Y-77773069D01*
X123328326Y-77759885D01*
X123340531Y-77748259D01*
X123350878Y-77738620D01*
X123358912Y-77731395D01*
X123364175Y-77727012D01*
X123365981Y-77725859D01*
X123372207Y-77725581D01*
X123378579Y-77727010D01*
G37*
%TD*%
M02*
