M48
; DRILL file KiCad 10.0.4-10.0.4~ubuntu24.04.1 date 2026-10-09T06:36:43
; FORMAT={-:-/ absolute / metric / decimal}
; #@! TF.CreationDate,2026-10-09T06:36:43+10:30
; #@! TF.GenerationSoftware,Kicad,Pcbnew,10.0.4-10.0.4~ubuntu24.04.1
; #@! TF.FileFunction,Plated,1,2,PTH
FMAT,2
METRIC
; #@! TA.AperFunction,Plated,PTH,ViaDrill
T1C0.300
; #@! TA.AperFunction,Plated,PTH,ViaDrill
T2C0.400
; #@! TA.AperFunction,Plated,PTH,ComponentDrill
T3C1.000
%
G90
G05
T1
X122.78Y-103.44
X123.165Y-102.565
X123.317Y-70.993
X123.317Y-71.755
X123.344Y-62.21
X123.44Y-72.59
X123.444Y-63.045
X123.444Y-63.881
X123.444Y-64.645
X123.444Y-65.445
X124.079Y-62.357
X124.188Y-63.058
X124.192Y-63.817
X124.206Y-64.643
X124.206Y-65.455
X124.333Y-70.993
X124.333Y-71.746
X124.333Y-72.472
X124.82Y-102.51
X125.12Y-103.44
X125.44Y-104.31
T2
X121.195Y-26.065
X122.745Y-29.265
X124.55Y-31.5
X124.915Y-29.035
X126.485Y-25.945
T3
X117.145Y-23.725
X117.145Y-26.265
X117.145Y-28.805
X117.145Y-31.345
X117.145Y-33.885
X117.145Y-36.425
X117.145Y-38.965
X117.145Y-41.505
X117.145Y-44.045
X117.145Y-46.585
X117.145Y-49.125
X117.145Y-51.665
X117.145Y-54.205
X117.145Y-56.745
X117.145Y-59.285
X117.145Y-61.825
X117.145Y-64.365
X117.145Y-66.905
X117.145Y-69.445
X117.145Y-71.985
X117.145Y-74.525
X117.145Y-77.065
X117.145Y-79.605
X117.145Y-82.145
X117.145Y-84.685
X117.145Y-87.225
X117.145Y-89.765
X117.145Y-92.305
X117.145Y-94.845
X117.145Y-97.385
X117.145Y-99.925
X117.145Y-102.465
X117.145Y-105.005
X117.145Y-107.545
X117.145Y-110.085
X129.845Y-23.725
X129.845Y-26.265
X129.845Y-28.805
X129.845Y-31.345
X129.845Y-33.885
X129.845Y-36.425
X129.845Y-38.965
X129.845Y-41.505
X129.845Y-44.045
X129.845Y-46.585
X129.845Y-49.125
X129.845Y-51.665
X129.845Y-54.205
X129.845Y-56.745
X129.845Y-59.285
X129.845Y-61.825
X129.845Y-64.365
X129.845Y-66.905
X129.845Y-69.445
X129.845Y-71.985
X129.845Y-74.525
X129.845Y-77.065
X129.845Y-79.605
X129.845Y-82.145
X129.845Y-84.685
X129.845Y-87.225
X129.845Y-89.765
X129.845Y-92.305
X129.845Y-94.845
X129.845Y-97.385
X129.845Y-99.925
X129.845Y-102.465
X129.845Y-105.005
X129.845Y-107.545
X129.845Y-110.085
M30
