%TF.GenerationSoftware,KiCad,Pcbnew,10.0.4-10.0.4~ubuntu24.04.1*%
%TF.CreationDate,2026-10-09T06:50:08+10:30*%
%TF.ProjectId,motherboards,6d6f7468-6572-4626-9f61-7264732e6b69,rev?*%
%TF.SameCoordinates,Original*%
%TF.FileFunction,Copper,L2,Bot*%
%TF.FilePolarity,Positive*%
%FSLAX46Y46*%
G04 Gerber Fmt 4.6, Leading zero omitted, Abs format (unit mm)*
G04 Created by KiCad (PCBNEW 10.0.4-10.0.4~ubuntu24.04.1) date 2026-10-09 06:50:08*
%MOMM*%
%LPD*%
G01*
G04 APERTURE LIST*
%TA.AperFunction,ComponentPad*%
%ADD10R,1.700000X1.700000*%
%TD*%
%TA.AperFunction,ComponentPad*%
%ADD11O,1.700000X1.700000*%
%TD*%
%TA.AperFunction,ViaPad*%
%ADD12C,0.800000*%
%TD*%
%TA.AperFunction,ViaPad*%
%ADD13C,0.500000*%
%TD*%
%TA.AperFunction,Conductor*%
%ADD14C,0.150000*%
%TD*%
G04 APERTURE END LIST*
D10*
%TO.P,J101,1,Pin_1_1*%
%TO.N,Net-(J101-Pin_1)*%
X117145000Y-23725000D03*
D11*
%TO.P,J101,2,Pin_2_2*%
%TO.N,Net-(J101-Pin_2)*%
X117145000Y-26265000D03*
%TO.P,J101,3,Pin_3_3*%
%TO.N,Net-(J101-Pin_3)*%
X117145000Y-28805000D03*
%TO.P,J101,4,Pin_4_4*%
%TO.N,Net-(J101-Pin_4)*%
X117145000Y-31345000D03*
%TO.P,J101,5,Pin_5_5*%
%TO.N,Net-(J101-Pin_5)*%
X117145000Y-33885000D03*
%TO.P,J101,6,Pin_6_6*%
%TO.N,Net-(J101-Pin_6)*%
X117145000Y-36425000D03*
%TO.P,J101,7,Pin_7_7*%
%TO.N,Net-(J101-Pin_7)*%
X117145000Y-38965000D03*
%TO.P,J101,8,Pin_8_8*%
%TO.N,Net-(J101-Pin_8)*%
X117145000Y-41505000D03*
%TO.P,J101,9,Pin_9_9*%
%TO.N,Net-(J101-Pin_9)*%
X117145000Y-44045000D03*
%TO.P,J101,10,Pin_10_10*%
%TO.N,Net-(J101-Pin_10)*%
X117145000Y-46585000D03*
%TO.P,J101,11,Pin_11_11*%
%TO.N,Net-(J101-Pin_11)*%
X117145000Y-49125000D03*
%TO.P,J101,12,Pin_12_12*%
%TO.N,Net-(J101-Pin_12)*%
X117145000Y-51665000D03*
%TO.P,J101,13,Pin_13_13*%
%TO.N,Net-(J101-Pin_13)*%
X117145000Y-54205000D03*
%TO.P,J101,14,Pin_14_14*%
%TO.N,Net-(J101-Pin_14)*%
X117145000Y-56745000D03*
%TO.P,J101,15,Pin_15_15*%
%TO.N,Net-(J101-Pin_15)*%
X117145000Y-59285000D03*
%TO.P,J101,16,Pin_16_16*%
%TO.N,Net-(J101-Pin_16)*%
X117145000Y-61825000D03*
%TO.P,J101,17,Pin_17_17*%
%TO.N,Net-(J101-Pin_17)*%
X117145000Y-64365000D03*
%TO.P,J101,18,Pin_18_18*%
%TO.N,Net-(J101-Pin_18)*%
X117145000Y-66905000D03*
%TO.P,J101,19,Pin_19_19*%
%TO.N,Net-(J101-Pin_19)*%
X117145000Y-69445000D03*
%TO.P,J101,20,Pin_20_20*%
%TO.N,Net-(J101-Pin_20)*%
X117145000Y-71985000D03*
%TO.P,J101,21,Pin_21_21*%
%TO.N,Net-(J101-Pin_21)*%
X117145000Y-74525000D03*
%TO.P,J101,22,Pin_22_22*%
%TO.N,Net-(J101-Pin_22)*%
X117145000Y-77065000D03*
%TO.P,J101,23,Pin_23_23*%
%TO.N,Net-(J101-Pin_23)*%
X117145000Y-79605000D03*
%TO.P,J101,24,Pin_24_24*%
%TO.N,Net-(J101-Pin_24)*%
X117145000Y-82145000D03*
%TO.P,J101,25,Pin_25_25*%
%TO.N,Net-(J101-Pin_25)*%
X117145000Y-84685000D03*
%TO.P,J101,26,Pin_26_26*%
%TO.N,Net-(J101-Pin_26)*%
X117145000Y-87225000D03*
%TO.P,J101,27,Pin_27_27*%
%TO.N,Net-(J101-Pin_27)*%
X117145000Y-89765000D03*
%TO.P,J101,28,Pin_28_28*%
%TO.N,Net-(J101-Pin_28)*%
X117145000Y-92305000D03*
%TO.P,J101,29,Pin_29_29*%
%TO.N,Net-(J101-Pin_29)*%
X117145000Y-94845000D03*
%TO.P,J101,30,Pin_30_30*%
%TO.N,Net-(J101-Pin_30)*%
X117145000Y-97385000D03*
%TO.P,J101,31,Pin_31_31*%
%TO.N,Net-(J101-Pin_31)*%
X117145000Y-99925000D03*
%TO.P,J101,32,Pin_32_32*%
%TO.N,Net-(J101-Pin_32)*%
X117145000Y-102465000D03*
%TO.P,J101,33,Pin_33_33*%
%TO.N,Net-(J101-Pin_33)*%
X117145000Y-105005000D03*
%TO.P,J101,34,Pin_34_34*%
%TO.N,Net-(J101-Pin_34)*%
X117145000Y-107545000D03*
%TO.P,J101,35,Pin_35_35*%
%TO.N,Net-(J101-Pin_35)*%
X117145000Y-110085000D03*
%TD*%
D10*
%TO.P,J103,1,Pin_1_1*%
%TO.N,Net-(J102-pad_7)*%
X129845000Y-23725000D03*
D11*
%TO.P,J103,2,Pin_2_2*%
%TO.N,Net-(J102-pad_6)*%
X129845000Y-26265000D03*
%TO.P,J103,3,Pin_3_3*%
%TO.N,Net-(J102-pad_5)*%
X129845000Y-28805000D03*
%TO.P,J103,4,Pin_4_4*%
%TO.N,Net-(J102-pad_4)*%
X129845000Y-31345000D03*
%TO.P,J103,5,Pin_5_5*%
%TO.N,Net-(J102-pad_3)*%
X129845000Y-33885000D03*
%TO.P,J103,6,Pin_6_6*%
%TO.N,Net-(J102-pad_2)*%
X129845000Y-36425000D03*
%TO.P,J103,7,Pin_7_7*%
%TO.N,Net-(J102-pad_1)*%
X129845000Y-38965000D03*
%TO.P,J103,8,Pin_8_8*%
%TO.N,Net-(J102-pad_0)*%
X129845000Y-41505000D03*
%TO.P,J103,9,Pin_9_9*%
%TO.N,Net-(J103-Pin_9)*%
X129845000Y-44045000D03*
%TO.P,J103,10,Pin_10_10*%
%TO.N,Net-(J103-Pin_10)*%
X129845000Y-46585000D03*
%TO.P,J103,11,Pin_11_11*%
%TO.N,Net-(J103-Pin_11)*%
X129845000Y-49125000D03*
%TO.P,J103,12,Pin_12_12*%
%TO.N,Net-(J102-pad_69)*%
X129845000Y-51665000D03*
%TO.P,J103,13,Pin_13_13*%
%TO.N,Net-(J102-pad_68)*%
X129845000Y-54205000D03*
%TO.P,J103,14,Pin_14_14*%
%TO.N,Net-(J102-pad_67)*%
X129845000Y-56745000D03*
%TO.P,J103,15,Pin_15_15*%
%TO.N,Net-(J102-pad_66)*%
X129845000Y-59285000D03*
%TO.P,J103,16,Pin_16_16*%
%TO.N,Net-(J102-pad_65)*%
X129845000Y-61825000D03*
%TO.P,J103,17,Pin_17_17*%
%TO.N,Net-(J102-pad_64)*%
X129845000Y-64365000D03*
%TO.P,J103,18,Pin_18_18*%
%TO.N,Net-(J103-Pin_18)*%
X129845000Y-66905000D03*
%TO.P,J103,19,Pin_19_19*%
%TO.N,Net-(J103-Pin_19)*%
X129845000Y-69445000D03*
%TO.P,J103,20,Pin_20_20*%
%TO.N,Net-(J102-pad_61)*%
X129845000Y-71985000D03*
%TO.P,J103,21,Pin_21_21*%
%TO.N,Net-(J102-pad_60)*%
X129845000Y-74525000D03*
%TO.P,J103,22,Pin_22_22*%
%TO.N,Net-(J102-pad_59)*%
X129845000Y-77065000D03*
%TO.P,J103,23,Pin_23_23*%
%TO.N,Net-(J102-pad_58)*%
X129845000Y-79605000D03*
%TO.P,J103,24,Pin_24_24*%
%TO.N,Net-(J103-Pin_24)*%
X129845000Y-82145000D03*
%TO.P,J103,25,Pin_25_25*%
%TO.N,Net-(J103-Pin_25)*%
X129845000Y-84685000D03*
%TO.P,J103,26,Pin_26_26*%
%TO.N,Net-(J102-pad_55)*%
X129845000Y-87225000D03*
%TO.P,J103,27,Pin_27_27*%
%TO.N,Net-(J102-pad_54)*%
X129845000Y-89765000D03*
%TO.P,J103,28,Pin_28_28*%
%TO.N,Net-(J102-pad_53)*%
X129845000Y-92305000D03*
%TO.P,J103,29,Pin_29_29*%
%TO.N,Net-(J102-pad_52)*%
X129845000Y-94845000D03*
%TO.P,J103,30,Pin_30_30*%
%TO.N,Net-(J102-pad_51)*%
X129845000Y-97385000D03*
%TO.P,J103,31,Pin_31_31*%
%TO.N,Net-(J102-pad_50)*%
X129845000Y-99925000D03*
%TO.P,J103,32,Pin_32_32*%
%TO.N,Net-(J102-pad_49)*%
X129845000Y-102465000D03*
%TO.P,J103,33,Pin_33_33*%
%TO.N,Net-(J102-pad_48)*%
X129845000Y-105005000D03*
%TO.P,J103,34,Pin_34_34*%
%TO.N,Net-(J102-pad_47)*%
X129845000Y-107545000D03*
%TO.P,J103,35,Pin_35_35*%
%TO.N,Net-(J102-pad_46)*%
X129845000Y-110085000D03*
%TD*%
D12*
%TO.N,Net-(J101-Pin_2)*%
X121195000Y-26065000D03*
%TO.N,Net-(J101-Pin_3)*%
X122745000Y-29265000D03*
D13*
%TO.N,Net-(J101-Pin_5)*%
X123343562Y-62209912D03*
%TO.N,Net-(J101-Pin_7)*%
X123444000Y-63045000D03*
%TO.N,Net-(J101-Pin_9)*%
X123444000Y-63881000D03*
%TO.N,Net-(J101-Pin_11)*%
X123444000Y-64645000D03*
%TO.N,Net-(J101-Pin_13)*%
X123444000Y-65445000D03*
%TO.N,Net-(J101-Pin_27)*%
X123317000Y-70993000D03*
%TO.N,Net-(J101-Pin_29)*%
X123317000Y-71755000D03*
%TO.N,Net-(J101-Pin_31)*%
X123439649Y-72590214D03*
%TO.N,Net-(J101-Pin_32)*%
X123165000Y-102565000D03*
%TO.N,Net-(J101-Pin_33)*%
X122780000Y-103440000D03*
%TO.N,Net-(J102-pad_47)*%
X125440000Y-104310000D03*
%TO.N,Net-(J102-pad_48)*%
X125120000Y-103440000D03*
%TO.N,Net-(J102-pad_49)*%
X124820000Y-102510000D03*
%TO.N,Net-(J102-pad_50)*%
X124333000Y-72471632D03*
%TO.N,Net-(J102-pad_52)*%
X124333000Y-71745869D03*
%TO.N,Net-(J102-pad_54)*%
X124333000Y-70993000D03*
%TO.N,Net-(J102-pad_68)*%
X124206000Y-65455000D03*
%TO.N,Net-(J103-Pin_11)*%
X124206000Y-64643000D03*
%TO.N,Net-(J103-Pin_9)*%
X124191942Y-63816608D03*
%TO.N,Net-(J102-pad_1)*%
X124188424Y-63058154D03*
%TO.N,Net-(J102-pad_3)*%
X124079000Y-62357000D03*
D12*
%TO.N,Net-(J102-pad_4)*%
X124550000Y-31500000D03*
%TO.N,Net-(J102-pad_5)*%
X124915000Y-29035000D03*
%TO.N,Net-(J102-pad_6)*%
X126485000Y-25945000D03*
%TD*%
%TO.N,Net-(J101-Pin_2)*%
D14*
X121195000Y-26065000D02*
X120545000Y-26065000D01*
X120545000Y-26065000D02*
X120345000Y-26265000D01*
X120345000Y-26265000D02*
X117145000Y-26265000D01*
%TO.N,Net-(J101-Pin_3)*%
X117145000Y-28805000D02*
X122285000Y-28805000D01*
X122285000Y-28805000D02*
X122745000Y-29265000D01*
%TO.N,Net-(J101-Pin_5)*%
X123343562Y-40083562D02*
X123343562Y-62209912D01*
X117145000Y-33885000D02*
X123343562Y-40083562D01*
%TO.N,Net-(J101-Pin_7)*%
X117145000Y-38965000D02*
X122568899Y-44388899D01*
X123043090Y-63045000D02*
X123444000Y-63045000D01*
X122568899Y-62570809D02*
X123043090Y-63045000D01*
X122568899Y-44388899D02*
X122568899Y-62570809D01*
%TO.N,Net-(J101-Pin_9)*%
X122218899Y-49118899D02*
X122218899Y-62848899D01*
X123251000Y-63881000D02*
X123444000Y-63881000D01*
X122218899Y-62848899D02*
X123251000Y-63881000D01*
X117145000Y-44045000D02*
X122218899Y-49118899D01*
%TO.N,Net-(J101-Pin_11)*%
X121868899Y-63258899D02*
X123255000Y-64645000D01*
X117145000Y-49125000D02*
X121868899Y-53848899D01*
X121868899Y-53848899D02*
X121868899Y-63258899D01*
X123255000Y-64645000D02*
X123444000Y-64645000D01*
%TO.N,Net-(J101-Pin_13)*%
X121455000Y-58515000D02*
X121455000Y-63685000D01*
X121455000Y-63685000D02*
X123215000Y-65445000D01*
X117145000Y-54205000D02*
X121455000Y-58515000D01*
X123215000Y-65445000D02*
X123444000Y-65445000D01*
%TO.N,Net-(J101-Pin_27)*%
X123207000Y-70993000D02*
X123317000Y-70993000D01*
X117145000Y-89765000D02*
X121625000Y-85285000D01*
X121625000Y-72575000D02*
X123207000Y-70993000D01*
X121625000Y-85285000D02*
X121625000Y-72575000D01*
%TO.N,Net-(J101-Pin_29)*%
X122655000Y-72417000D02*
X123317000Y-71755000D01*
X117145000Y-94845000D02*
X122655000Y-89335000D01*
X122655000Y-89335000D02*
X122655000Y-72417000D01*
%TO.N,Net-(J101-Pin_31)*%
X123439649Y-93630351D02*
X123439649Y-72590214D01*
X117145000Y-99925000D02*
X123439649Y-93630351D01*
%TO.N,Net-(J101-Pin_32)*%
X123065000Y-102465000D02*
X117145000Y-102465000D01*
X123165000Y-102565000D02*
X123065000Y-102465000D01*
%TO.N,Net-(J101-Pin_33)*%
X118710000Y-103440000D02*
X122780000Y-103440000D01*
X117145000Y-105005000D02*
X118710000Y-103440000D01*
%TO.N,Net-(J102-pad_47)*%
X126610000Y-104310000D02*
X125440000Y-104310000D01*
X129845000Y-107545000D02*
X126610000Y-104310000D01*
%TO.N,Net-(J102-pad_48)*%
X128280000Y-103440000D02*
X125120000Y-103440000D01*
X129845000Y-105005000D02*
X128280000Y-103440000D01*
%TO.N,Net-(J102-pad_49)*%
X124865000Y-102465000D02*
X124820000Y-102510000D01*
X129845000Y-102465000D02*
X124865000Y-102465000D01*
%TO.N,Net-(J102-pad_50)*%
X129845000Y-99925000D02*
X124333000Y-94413000D01*
X124333000Y-94413000D02*
X124333000Y-72471632D01*
%TO.N,Net-(J102-pad_52)*%
X126155000Y-91155000D02*
X126155000Y-73350035D01*
X129845000Y-94845000D02*
X126155000Y-91155000D01*
X124550834Y-71745869D02*
X124333000Y-71745869D01*
X126155000Y-73350035D02*
X124550834Y-71745869D01*
%TO.N,Net-(J102-pad_54)*%
X126745000Y-86665000D02*
X126745000Y-73405000D01*
X129845000Y-89765000D02*
X126745000Y-86665000D01*
X126745000Y-73405000D02*
X124333000Y-70993000D01*
%TO.N,Net-(J102-pad_68)*%
X126805000Y-63095000D02*
X124445000Y-65455000D01*
X124445000Y-65455000D02*
X124206000Y-65455000D01*
X129845000Y-54205000D02*
X126805000Y-57245000D01*
X126805000Y-57245000D02*
X126805000Y-63095000D01*
%TO.N,Net-(J103-Pin_11)*%
X126255000Y-52715000D02*
X126255000Y-62805000D01*
X126255000Y-62805000D02*
X124417000Y-64643000D01*
X124417000Y-64643000D02*
X124206000Y-64643000D01*
X129845000Y-49125000D02*
X126255000Y-52715000D01*
%TO.N,Net-(J103-Pin_9)*%
X129845000Y-44045000D02*
X125715000Y-48175000D01*
X125715000Y-48175000D02*
X125715000Y-62545000D01*
X124443392Y-63816608D02*
X124191942Y-63816608D01*
X125715000Y-62545000D02*
X124443392Y-63816608D01*
%TO.N,Net-(J102-pad_1)*%
X124915000Y-43895000D02*
X124915000Y-62526084D01*
X129845000Y-38965000D02*
X124915000Y-43895000D01*
X124915000Y-62526084D02*
X124382930Y-63058154D01*
X124382930Y-63058154D02*
X124188424Y-63058154D01*
%TO.N,Net-(J102-pad_3)*%
X124079000Y-39651000D02*
X124079000Y-62357000D01*
X129845000Y-33885000D02*
X124079000Y-39651000D01*
%TO.N,Net-(J102-pad_4)*%
X124705000Y-31345000D02*
X124550000Y-31500000D01*
X129845000Y-31345000D02*
X124705000Y-31345000D01*
%TO.N,Net-(J102-pad_5)*%
X125145000Y-28805000D02*
X124915000Y-29035000D01*
X129845000Y-28805000D02*
X125145000Y-28805000D01*
%TO.N,Net-(J102-pad_6)*%
X126485000Y-25945000D02*
X126805000Y-26265000D01*
X126805000Y-26265000D02*
X129845000Y-26265000D01*
%TD*%
M02*
